<mxfile host="Electron" agent="Mozilla/5.0 (Windows NT 10.0; Win64; x64) AppleWebKit/537.36 (KHTML, like Gecko) draw.io/26.0.4 Chrome/128.0.6613.186 Electron/32.2.5 Safari/537.36" version="26.0.4">
  <diagram name="Página-1" id="kzF11InsTJtlvI3ND-uS">
    <mxGraphModel dx="875" dy="518" grid="1" gridSize="10" guides="1" tooltips="1" connect="1" arrows="1" fold="1" page="1" pageScale="1" pageWidth="827" pageHeight="1169" math="0" shadow="0">
      <root>
        <mxCell id="0" />
        <mxCell id="1" parent="0" />
        <mxCell id="3ViETpApPe1qbinuCM58-1" value="Inicio del programa" style="strokeWidth=2;html=1;shape=mxgraph.flowchart.start_1;whiteSpace=wrap;fillColor=#dae8fc;strokeColor=#6c8ebf;" parent="1" vertex="1">
          <mxGeometry x="141" y="10" width="146" height="60" as="geometry" />
        </mxCell>
        <mxCell id="NTir04w_F9S96uzVtdC5-6" value="" style="edgeStyle=orthogonalEdgeStyle;rounded=0;orthogonalLoop=1;jettySize=auto;html=1;" parent="1" source="NTir04w_F9S96uzVtdC5-1" target="NTir04w_F9S96uzVtdC5-3" edge="1">
          <mxGeometry relative="1" as="geometry">
            <Array as="points">
              <mxPoint x="214" y="200" />
              <mxPoint x="214" y="200" />
            </Array>
          </mxGeometry>
        </mxCell>
        <mxCell id="NTir04w_F9S96uzVtdC5-1" value="Mostrar bienvenida al usuario" style="rounded=1;whiteSpace=wrap;html=1;fillColor=#f8cecc;strokeColor=#b85450;" parent="1" vertex="1">
          <mxGeometry x="154" y="100" width="120" height="60" as="geometry" />
        </mxCell>
        <mxCell id="NTir04w_F9S96uzVtdC5-2" value="" style="endArrow=classic;html=1;rounded=0;" parent="1" target="NTir04w_F9S96uzVtdC5-1" edge="1">
          <mxGeometry width="50" height="50" relative="1" as="geometry">
            <mxPoint x="214" y="100" as="sourcePoint" />
            <mxPoint x="264" y="50" as="targetPoint" />
          </mxGeometry>
        </mxCell>
        <mxCell id="NTir04w_F9S96uzVtdC5-3" value="Mostrar la ruta donde se encuentran almacenadas las recetas" style="rounded=1;whiteSpace=wrap;html=1;fillColor=#f8cecc;strokeColor=#b85450;" parent="1" vertex="1">
          <mxGeometry x="131" y="190" width="166" height="60" as="geometry" />
        </mxCell>
        <mxCell id="NTir04w_F9S96uzVtdC5-8" value="Mostrar cuantas recetas (en total) se encuentran almacenadas en la carpeta raiz&amp;nbsp;" style="rounded=1;whiteSpace=wrap;html=1;fillColor=#f8cecc;strokeColor=#b85450;" parent="1" vertex="1">
          <mxGeometry x="106" y="280" width="216" height="60" as="geometry" />
        </mxCell>
        <mxCell id="NTir04w_F9S96uzVtdC5-10" value="" style="endArrow=classic;html=1;rounded=0;entryX=0.5;entryY=0;entryDx=0;entryDy=0;" parent="1" target="NTir04w_F9S96uzVtdC5-1" edge="1">
          <mxGeometry width="50" height="50" relative="1" as="geometry">
            <mxPoint x="214" y="70" as="sourcePoint" />
            <mxPoint x="264" y="20" as="targetPoint" />
          </mxGeometry>
        </mxCell>
        <mxCell id="NTir04w_F9S96uzVtdC5-11" value="" style="endArrow=classic;html=1;rounded=0;entryX=0.5;entryY=0;entryDx=0;entryDy=0;" parent="1" target="NTir04w_F9S96uzVtdC5-8" edge="1">
          <mxGeometry width="50" height="50" relative="1" as="geometry">
            <mxPoint x="214" y="250" as="sourcePoint" />
            <mxPoint x="264" y="200" as="targetPoint" />
          </mxGeometry>
        </mxCell>
        <mxCell id="NTir04w_F9S96uzVtdC5-12" value="Mostrar menú" style="rounded=1;whiteSpace=wrap;html=1;fillColor=#f8cecc;strokeColor=#b85450;" parent="1" vertex="1">
          <mxGeometry x="154" y="490" width="120" height="60" as="geometry" />
        </mxCell>
        <mxCell id="mHcv7NWztH-BuW8Ib_pw-1" value="Si la opción != 6" style="strokeWidth=2;shape=mxgraph.flowchart.decision;whiteSpace=wrap;html=1;" vertex="1" parent="1">
          <mxGeometry x="144" y="370" width="140" height="90" as="geometry" />
        </mxCell>
        <mxCell id="mHcv7NWztH-BuW8Ib_pw-4" value="Si es verdadero" style="text;html=1;align=center;verticalAlign=middle;whiteSpace=wrap;rounded=0;" vertex="1" parent="1">
          <mxGeometry x="120" y="440" width="74" height="40" as="geometry" />
        </mxCell>
        <mxCell id="mHcv7NWztH-BuW8Ib_pw-5" value="Aquí entramos en el bucle while" style="text;html=1;align=center;verticalAlign=middle;whiteSpace=wrap;rounded=0;" vertex="1" parent="1">
          <mxGeometry x="240" y="360" width="134" height="30" as="geometry" />
        </mxCell>
        <mxCell id="mHcv7NWztH-BuW8Ib_pw-7" value="Si la opción == 1" style="strokeWidth=2;shape=mxgraph.flowchart.decision;whiteSpace=wrap;html=1;" vertex="1" parent="1">
          <mxGeometry x="144" y="660" width="140" height="90" as="geometry" />
        </mxCell>
        <mxCell id="mHcv7NWztH-BuW8Ib_pw-12" value="" style="endArrow=classic;html=1;rounded=0;" edge="1" parent="1" target="mHcv7NWztH-BuW8Ib_pw-1">
          <mxGeometry width="50" height="50" relative="1" as="geometry">
            <mxPoint x="214" y="340" as="sourcePoint" />
            <mxPoint x="264" y="290" as="targetPoint" />
          </mxGeometry>
        </mxCell>
        <mxCell id="mHcv7NWztH-BuW8Ib_pw-13" value="" style="endArrow=classic;html=1;rounded=0;entryX=0.5;entryY=0;entryDx=0;entryDy=0;" edge="1" parent="1" target="NTir04w_F9S96uzVtdC5-12">
          <mxGeometry width="50" height="50" relative="1" as="geometry">
            <mxPoint x="214" y="460" as="sourcePoint" />
            <mxPoint x="264" y="410" as="targetPoint" />
          </mxGeometry>
        </mxCell>
        <mxCell id="mHcv7NWztH-BuW8Ib_pw-15" value="NOTA: Cuando entremos al menú la opción por default será 0" style="text;html=1;align=center;verticalAlign=middle;whiteSpace=wrap;rounded=0;" vertex="1" parent="1">
          <mxGeometry x="400" y="360" width="160" height="40" as="geometry" />
        </mxCell>
        <mxCell id="mHcv7NWztH-BuW8Ib_pw-16" value="Ingresa numero" style="shape=parallelogram;html=1;strokeWidth=2;perimeter=parallelogramPerimeter;whiteSpace=wrap;rounded=1;arcSize=12;size=0.23;" vertex="1" parent="1">
          <mxGeometry x="152" y="580" width="124" height="50" as="geometry" />
        </mxCell>
        <mxCell id="mHcv7NWztH-BuW8Ib_pw-17" value="" style="endArrow=classic;html=1;rounded=0;entryX=0.5;entryY=0;entryDx=0;entryDy=0;" edge="1" parent="1" target="mHcv7NWztH-BuW8Ib_pw-16">
          <mxGeometry width="50" height="50" relative="1" as="geometry">
            <mxPoint x="214" y="550" as="sourcePoint" />
            <mxPoint x="264" y="500" as="targetPoint" />
          </mxGeometry>
        </mxCell>
        <mxCell id="mHcv7NWztH-BuW8Ib_pw-18" value="" style="endArrow=classic;html=1;rounded=0;entryX=0.5;entryY=0;entryDx=0;entryDy=0;entryPerimeter=0;" edge="1" parent="1" target="mHcv7NWztH-BuW8Ib_pw-7">
          <mxGeometry width="50" height="50" relative="1" as="geometry">
            <mxPoint x="214" y="630" as="sourcePoint" />
            <mxPoint x="264" y="580" as="targetPoint" />
          </mxGeometry>
        </mxCell>
        <mxCell id="mHcv7NWztH-BuW8Ib_pw-19" value="&lt;h1 style=&quot;margin-top: 0px;&quot;&gt;&lt;font style=&quot;font-size: 14px;&quot;&gt;Opciones del menú&lt;/font&gt;&lt;/h1&gt;&lt;p&gt;&lt;/p&gt;&lt;ol&gt;&lt;li&gt;&lt;font style=&quot;font-size: 11px;&quot;&gt;Leer recetas&amp;nbsp;&lt;/font&gt;&lt;/li&gt;&lt;li&gt;&lt;font style=&quot;font-size: 11px;&quot;&gt;Crear receta&amp;nbsp;&lt;/font&gt;&lt;/li&gt;&lt;li&gt;&lt;font style=&quot;font-size: 11px;&quot;&gt;Crear categoría&lt;/font&gt;&lt;/li&gt;&lt;li&gt;&lt;font style=&quot;font-size: 11px;&quot;&gt;Eliminar receta&lt;/font&gt;&lt;/li&gt;&lt;li&gt;&lt;font style=&quot;font-size: 11px;&quot;&gt;Eliminar categoría&lt;/font&gt;&lt;/li&gt;&lt;li&gt;&lt;font style=&quot;font-size: 11px;&quot;&gt;Finalizar programa&lt;/font&gt;&lt;/li&gt;&lt;/ol&gt;&lt;p&gt;&lt;/p&gt;" style="text;html=1;whiteSpace=wrap;overflow=hidden;rounded=0;" vertex="1" parent="1">
          <mxGeometry x="322" y="480" width="140" height="150" as="geometry" />
        </mxCell>
        <mxCell id="mHcv7NWztH-BuW8Ib_pw-21" value="Ingresa la categoría" style="shape=parallelogram;html=1;strokeWidth=2;perimeter=parallelogramPerimeter;whiteSpace=wrap;rounded=1;arcSize=12;size=0.23;align=center;" vertex="1" parent="1">
          <mxGeometry x="152" y="780" width="124" height="50" as="geometry" />
        </mxCell>
        <mxCell id="mHcv7NWztH-BuW8Ib_pw-22" value="Mostrar recetas" style="rounded=1;whiteSpace=wrap;html=1;fillColor=#f8cecc;strokeColor=#b85450;" vertex="1" parent="1">
          <mxGeometry x="154" y="860" width="120" height="60" as="geometry" />
        </mxCell>
        <mxCell id="mHcv7NWztH-BuW8Ib_pw-23" value="Elegir receta" style="shape=parallelogram;html=1;strokeWidth=2;perimeter=parallelogramPerimeter;whiteSpace=wrap;rounded=1;arcSize=12;size=0.23;align=center;" vertex="1" parent="1">
          <mxGeometry x="152" y="950" width="124" height="50" as="geometry" />
        </mxCell>
        <mxCell id="mHcv7NWztH-BuW8Ib_pw-24" value="Mostrar receta elegida" style="rounded=1;whiteSpace=wrap;html=1;fillColor=#f8cecc;strokeColor=#b85450;" vertex="1" parent="1">
          <mxGeometry x="154" y="1030" width="120" height="60" as="geometry" />
        </mxCell>
        <mxCell id="dAJCM-8Wbw4aqFR9fW2n-1" value="" style="endArrow=classic;html=1;rounded=0;entryX=0.5;entryY=0;entryDx=0;entryDy=0;" edge="1" parent="1" target="mHcv7NWztH-BuW8Ib_pw-21">
          <mxGeometry width="50" height="50" relative="1" as="geometry">
            <mxPoint x="214" y="750" as="sourcePoint" />
            <mxPoint x="264" y="700" as="targetPoint" />
          </mxGeometry>
        </mxCell>
        <mxCell id="dAJCM-8Wbw4aqFR9fW2n-2" value="" style="endArrow=classic;html=1;rounded=0;entryX=0.5;entryY=0;entryDx=0;entryDy=0;" edge="1" parent="1" target="mHcv7NWztH-BuW8Ib_pw-22">
          <mxGeometry width="50" height="50" relative="1" as="geometry">
            <mxPoint x="214" y="830" as="sourcePoint" />
            <mxPoint x="264" y="780" as="targetPoint" />
          </mxGeometry>
        </mxCell>
        <mxCell id="dAJCM-8Wbw4aqFR9fW2n-3" value="" style="endArrow=classic;html=1;rounded=0;entryX=0.5;entryY=0;entryDx=0;entryDy=0;" edge="1" parent="1" target="mHcv7NWztH-BuW8Ib_pw-23">
          <mxGeometry width="50" height="50" relative="1" as="geometry">
            <mxPoint x="214" y="920" as="sourcePoint" />
            <mxPoint x="264" y="870" as="targetPoint" />
          </mxGeometry>
        </mxCell>
        <mxCell id="dAJCM-8Wbw4aqFR9fW2n-7" value="" style="endArrow=classic;html=1;rounded=0;entryX=0.5;entryY=0;entryDx=0;entryDy=0;" edge="1" parent="1" target="mHcv7NWztH-BuW8Ib_pw-24">
          <mxGeometry width="50" height="50" relative="1" as="geometry">
            <mxPoint x="214" y="1000" as="sourcePoint" />
            <mxPoint x="264" y="950" as="targetPoint" />
          </mxGeometry>
        </mxCell>
        <mxCell id="dAJCM-8Wbw4aqFR9fW2n-11" value="" style="endArrow=classic;html=1;rounded=0;" edge="1" parent="1">
          <mxGeometry width="50" height="50" relative="1" as="geometry">
            <mxPoint x="40" y="415" as="sourcePoint" />
            <mxPoint x="144" y="414.58" as="targetPoint" />
          </mxGeometry>
        </mxCell>
        <mxCell id="dAJCM-8Wbw4aqFR9fW2n-12" value="" style="endArrow=none;html=1;rounded=0;" edge="1" parent="1">
          <mxGeometry width="50" height="50" relative="1" as="geometry">
            <mxPoint x="40" y="1120" as="sourcePoint" />
            <mxPoint x="40" y="414.58" as="targetPoint" />
          </mxGeometry>
        </mxCell>
        <mxCell id="dAJCM-8Wbw4aqFR9fW2n-13" value="Si la opción == 2" style="strokeWidth=2;shape=mxgraph.flowchart.decision;whiteSpace=wrap;html=1;" vertex="1" parent="1">
          <mxGeometry x="330" y="660" width="140" height="90" as="geometry" />
        </mxCell>
        <mxCell id="dAJCM-8Wbw4aqFR9fW2n-14" value="Si la opción == 3" style="strokeWidth=2;shape=mxgraph.flowchart.decision;whiteSpace=wrap;html=1;" vertex="1" parent="1">
          <mxGeometry x="520" y="660" width="140" height="90" as="geometry" />
        </mxCell>
        <mxCell id="dAJCM-8Wbw4aqFR9fW2n-15" value="Si la opción == 4" style="strokeWidth=2;shape=mxgraph.flowchart.decision;whiteSpace=wrap;html=1;" vertex="1" parent="1">
          <mxGeometry x="710" y="660" width="140" height="90" as="geometry" />
        </mxCell>
        <mxCell id="dAJCM-8Wbw4aqFR9fW2n-16" value="Si la opción == 5" style="strokeWidth=2;shape=mxgraph.flowchart.decision;whiteSpace=wrap;html=1;" vertex="1" parent="1">
          <mxGeometry x="900" y="660" width="140" height="90" as="geometry" />
        </mxCell>
        <mxCell id="xQ-OzBGJRAt4TcHu-Pk_-2" value="" style="endArrow=classic;html=1;rounded=0;exitX=1;exitY=0.5;exitDx=0;exitDy=0;exitPerimeter=0;entryX=0;entryY=0.5;entryDx=0;entryDy=0;entryPerimeter=0;" edge="1" parent="1" source="mHcv7NWztH-BuW8Ib_pw-7" target="dAJCM-8Wbw4aqFR9fW2n-13">
          <mxGeometry width="50" height="50" relative="1" as="geometry">
            <mxPoint x="400" y="800" as="sourcePoint" />
            <mxPoint x="450" y="750" as="targetPoint" />
          </mxGeometry>
        </mxCell>
        <mxCell id="xQ-OzBGJRAt4TcHu-Pk_-3" value="" style="endArrow=classic;html=1;rounded=0;exitX=1;exitY=0.5;exitDx=0;exitDy=0;exitPerimeter=0;entryX=0;entryY=0.5;entryDx=0;entryDy=0;entryPerimeter=0;" edge="1" parent="1" source="dAJCM-8Wbw4aqFR9fW2n-13" target="dAJCM-8Wbw4aqFR9fW2n-14">
          <mxGeometry width="50" height="50" relative="1" as="geometry">
            <mxPoint x="500" y="800" as="sourcePoint" />
            <mxPoint x="550" y="750" as="targetPoint" />
          </mxGeometry>
        </mxCell>
        <mxCell id="xQ-OzBGJRAt4TcHu-Pk_-4" value="" style="endArrow=classic;html=1;rounded=0;exitX=1;exitY=0.5;exitDx=0;exitDy=0;exitPerimeter=0;entryX=0;entryY=0.5;entryDx=0;entryDy=0;entryPerimeter=0;" edge="1" parent="1" source="dAJCM-8Wbw4aqFR9fW2n-14" target="dAJCM-8Wbw4aqFR9fW2n-15">
          <mxGeometry width="50" height="50" relative="1" as="geometry">
            <mxPoint x="640" y="830" as="sourcePoint" />
            <mxPoint x="690" y="780" as="targetPoint" />
          </mxGeometry>
        </mxCell>
        <mxCell id="xQ-OzBGJRAt4TcHu-Pk_-5" value="" style="endArrow=classic;html=1;rounded=0;exitX=1;exitY=0.5;exitDx=0;exitDy=0;exitPerimeter=0;entryX=0;entryY=0.5;entryDx=0;entryDy=0;entryPerimeter=0;" edge="1" parent="1" source="dAJCM-8Wbw4aqFR9fW2n-15" target="dAJCM-8Wbw4aqFR9fW2n-16">
          <mxGeometry width="50" height="50" relative="1" as="geometry">
            <mxPoint x="860" y="800" as="sourcePoint" />
            <mxPoint x="910" y="750" as="targetPoint" />
          </mxGeometry>
        </mxCell>
        <mxCell id="xQ-OzBGJRAt4TcHu-Pk_-6" value="" style="endArrow=none;html=1;rounded=0;entryX=0.5;entryY=1;entryDx=0;entryDy=0;" edge="1" parent="1" target="mHcv7NWztH-BuW8Ib_pw-24">
          <mxGeometry width="50" height="50" relative="1" as="geometry">
            <mxPoint x="214" y="1120" as="sourcePoint" />
            <mxPoint x="191" y="1110" as="targetPoint" />
          </mxGeometry>
        </mxCell>
        <mxCell id="xQ-OzBGJRAt4TcHu-Pk_-7" value="" style="endArrow=none;html=1;rounded=0;" edge="1" parent="1">
          <mxGeometry width="50" height="50" relative="1" as="geometry">
            <mxPoint x="40" y="1120" as="sourcePoint" />
            <mxPoint x="214" y="1120" as="targetPoint" />
          </mxGeometry>
        </mxCell>
      </root>
    </mxGraphModel>
  </diagram>
</mxfile>
